# xmcd CD database file
#
# Track frame offsets:
#	150
#	26690
#	49398
#	73869
#	94229
#	112724
#	132883
#	153407
#	179467
#	201934
#	227181
#	248499
#	271685
#	292618
#	319024
#
# Disc length: 4524 seconds
#
# Revision: 9
# Processed by: cddbd v1.5.1PL2 Copyright (c) Steve Scherf et al.
# Submitted via: CDex 1.51
#
DISCID=cb11aa0f
DTITLE=Mr.Children - MR.CHILDREN 1992-1995
DYEAR=2001
DGENRE=Pop
TTITLE0=Kimi ga ita Natsu
TTITLE1=Hoshi ni naretara
TTITLE2=Dakishimetai
TTITLE3=Replay
TTITLE4=LOVE
TTITLE5=my life
TTITLE6=CROSS ROAD
TTITLE7=Innocent World
TTITLE8=Dance Dance Dance
TTITLE9=Ame nochi Hare
TTITLE10=Over
TTITLE11=Tommorow never knows
TTITLE12=every body goes
TTITLE13=es -Theme of es-
TTITLE14=Seasow game
EXTD=YEAR: 2001
EXTT0=
EXTT1=
EXTT2=
EXTT3=
EXTT4=
EXTT5=
EXTT6=
EXTT7=
EXTT8=
EXTT9=
EXTT10=
EXTT11=
EXTT12=
EXTT13=
EXTT14=
PLAYORDER=
